<svg width="48" height="48" viewBox="6 6 36 36" fill="none" xmlns="http://www.w3.org/2000/svg">
  <path d="M34.9 21.05L25 30.95C24.8333 31.1167 24.6667 31.2333 24.5 31.3C24.3333 31.3667 24.15 31.4 23.95 31.4C23.75 31.4 23.5667 31.3667 23.4 31.3C23.2333 31.2333 23.0667 31.1167 22.9 30.95L12.95 21C12.65 20.7 12.5 20.3417 12.5 19.925C12.5 19.5083 12.65 19.15 12.95 18.85C13.25 18.55 13.6167 18.4083 14.05 18.425C14.4833 18.4417 14.85 18.6 15.15 18.9L23.95 27.7L32.8 18.85C33.1 18.55 33.45 18.4 33.85 18.4C34.25 18.4 34.6 18.55 34.9 18.85C35.2 19.15 35.35 19.5167 35.35 19.95C35.35 20.3833 35.2 20.75 34.9 21.05Z" fill="#1D1D1D"/>
</svg>
