<svg width="48" height="48" viewBox="6 6 36 36" fill="none" xmlns="http://www.w3.org/2000/svg">
  <path d="M34.9001 30.3C34.5667 30.5667 34.2001 30.7083 33.8001 30.725C33.4001 30.7417 33.0501 30.6 32.7501 30.3L23.9501 21.5L15.1001 30.35C14.8334 30.6167 14.4751 30.7417 14.0251 30.725C13.5751 30.7083 13.2167 30.5667 12.9501 30.3C12.6167 29.9667 12.4584 29.6083 12.4751 29.225C12.4917 28.8417 12.6501 28.5 12.9501 28.2L22.9001 18.25C23.0667 18.0833 23.2334 17.9667 23.4001 17.9C23.5667 17.8333 23.7501 17.8 23.9501 17.8C24.1501 17.8 24.3334 17.8333 24.5001 17.9C24.6667 17.9667 24.8334 18.0833 25.0001 18.25L34.9001 28.15C35.2001 28.45 35.3417 28.8 35.3251 29.2C35.3084 29.6 35.1667 29.9667 34.9001 30.3Z" fill="#1D1D1D"/>
</svg>
